<?xml version="1.0" encoding="utf-8"?>
<!-- Generator: Adobe Illustrator 24.1.0, SVG Export Plug-In . SVG Version: 6.00 Build 0)  -->
<svg version="1.1" id="Layer_1" xmlns="http://www.w3.org/2000/svg" xmlns:xlink="http://www.w3.org/1999/xlink" x="0px" y="0px"
	 viewBox="0 0 720 444" style="enable-background:new 0 0 720 444;" xml:space="preserve">
<style type="text/css">
	.st0{fill:none;stroke:#006600;stroke-width:3;stroke-miterlimit:10;}
	.st1{opacity:0.5;}
	.st2{opacity:0.2;fill:none;stroke:#006600;stroke-width:3;stroke-miterlimit:10;enable-background:new    ;}
</style>
<g>
	<g>
		<path class="st0" d="M249.5,414.3v-63.7l0,0h5.2l0,0v-14.2l0,0h3l0,0V179.9l0,0c-0.7,0-18.3-0.4-18.3-21.8l0,0l-19.2-22.6l0,0
			h11.3c1.2,0,2.3,1,2.2,2.3l0,0c0,4.9,6.9,8.8,15.4,8.8c4.4,0,2.3-2.7,5.1-5.2c2.5-2.2,6.1-2.5,8.9-0.7c4.2,2.7,10.4,5.9,16.3,5.9
			c11.2,0,20.4-4.8,21.7-11.1h0.3c1.3,6.2,10.5,11.1,21.7,11.1c6.9,0,13.1-1.8,17.1-4.7c2.7-1.9,6.4-1.7,8.9,0.4
			c2.7,2.2,0.3,4.3,4.3,4.3c8.5,0,15.4-3.9,15.4-8.8v-0.1c0-1.2,1-2.2,2.1-2.2h11.4l0,0L363.1,158H363c0,18.1-14.3,21.3-19.3,21.8
			l0,0v156.5l0,0h3l0,0v14.2l0,0h5.2l0,0v63.7"/>
		<path class="st0" d="M326.4,414.3v-63.7h5.3v-14.2h3V179.9c0-4.2-3.2-7.6-7.4-7.9c-13.3-0.9-39.8-0.8-53.1,0.1
			c-4.2,0.3-7.4,3.7-7.4,7.9l0,0v156.4h3v14.2h5.3v63.7"/>
		<line class="st0" x1="266.8" y1="190.2" x2="334.7" y2="190.2"/>
		<line class="st0" x1="334.7" y1="199.3" x2="266.8" y2="199.3"/>
		<path class="st0" d="M238.6,426.1H363l0,0c0-6.4-5.2-11.6-11.6-11.6H250.2C243.8,414.5,238.6,419.7,238.6,426.1L238.6,426.1z"/>
		<path class="st0" d="M378.1,444L378.1,444c0-9.9-8-17.9-17.9-17.9H241.5c-9.9,0-18,8-18,17.9l0,0"/>
	</g>
	<g class="st1">
		<path class="st0" d="M269.9,347.1c0-0.7,0.9-1.3,0.9-1.3s0.7-0.3,1-1.1c0.3-0.8,0.7-2.1,0.7-2.1s0.7-2.2,1.2-2.9
			c0.2-0.3,1.3-4.4,2.2-4.4c0,0,0.2-4,0.6-4.4c0.1-0.1,0.3,0.7,0.7,0.4c0.6-0.6,0.9-2,1-2.6c0.7-3,1.1-24.5,1.1-25.8
			c0,0,0.2-2.8,0.2-3.5c0,0.7,0.2,3.5,0.2,3.5c0,1.2,0.4,22.7,1.1,25.8c0.2,0.7,0.4,2.1,1,2.6c0.4,0.3,0.6-0.5,0.7-0.4
			c0.3,0.3,0.5,4.4,0.5,4.4c0.9,0,2,4,2.2,4.4c0.4,0.7,1.2,2.9,1.2,2.9s0.4,1.3,0.7,2.1c0.3,0.8,1,1.1,1,1.1s0.9,0.7,0.9,1.3
			c0,0.7,0,3.4,0,3.4s3.1,0.1,3.1-0.6s0.6-1.3,1.2-1.9s0.4-2,0.6-2.2s0.3,1,0.3,1.6s-0.2,1.4-0.5,1.7c-0.4,0.3-0.5,1.4-0.5,1.4v4.5
			c0,0,0.8,0,1.4,0s1-1,1.4-1.4c0.3-0.4,0.5-1.5,1-2s0.5-1.9,0.8-2c0.2-0.1,0.4,1.7-0.3,2.4c-0.8,0.8-0.4,2.3-0.1,3.2
			c0.3,0.9-0.3,1.6-0.3,4.4c0,0.7,0,1.3,0.1,1.8l0.1-0.2l4.6-4.8l0.6-1v-0.8c0,0-2.1-2.1-2.2-2.6c-0.1-0.4,0.4-1,0.4-1
			s1.7-0.8,2.3-0.8c0.6,0,1-0.6,1-0.6l1.4-5.1l-0.2-0.7c-0.9-0.4-1.3-2.6-1.3-2.6s1.3-2.1,1.2-3c-0.2-0.9,0.4-2.8,0.7-2.9
			c0.3-0.1,0.9,0,0.9,0l0.1-0.7c-1.6-1.1-0.6-3-0.6-3c2.3-4.3,0-6.3,0-6.3c-0.3-1,1.3-1.5,1.3-1.5l2.8-36.6h0.2l2.8,36.6
			c0,0,1.5,0.5,1.3,1.5c0,0-2.3,2,0,6.3c0,0,1,1.9-0.6,3l0.1,0.7c0,0,0.6-0.1,0.9,0s0.9,2,0.7,2.9c-0.2,0.9-0.3,1.5-0.3,1.5l1.1,0.8
			l-1,4l1.4,5.1c0,0,0.4,0.6,1,0.6s2.3,0.8,2.3,0.8s0.5,0.6,0.4,1s-2.2,2.6-2.2,2.6v0.8l0.6,1l4.9,5.3l3.1,6.6"/>
		<path class="st0" d="M499.8,401.4"/>
		<path class="st0" d="M485.9,387.3"/>
		<line class="st0" x1="352.1" y1="401.4" x2="499.8" y2="401.4"/>
		<path class="st0" d="M499.8,444v-42.6h-1.5v-0.7c0,0,0.7-0.3,0.7-1.6c0-1.6-2-2.7-2-2.7l-2.1-6.7c0,0,1.2-0.9,0.5-2.3
			c-0.6-1.3,0.2-1.7,0.2-1.7s0.2,0.2,0.5,0.2c0.6,0,1.4-0.6,0.9-2c0,0-0.1-1,0.1-1.3s0.3-0.9,0-1.4s-0.4-0.6-0.4-0.8
			c0-0.2-0.2,0.5,0.1,0.8c0.2,0.4,0,1-0.2,1.3c-0.1,0.3-0.3,1.1-0.6,1.4c-0.3,0.3-1.2,0.7-1.5,1.2c-0.1,0.2-1.4,2.1-2.6,2.1h-8.3
			l-3.9-14.2c0,0-0.1-1.5-1.9-2.2v-2l-1.8-1.4l1.2-2.3v-1.7l-3.1-1l-10-75H464l-9.9,75l-3.1,1v1.7l1.2,2.3l-1.8,1.4v2
			c-1.8,0.7-1.9,2.2-1.9,2.2l-2.6,7.5c-0.2,0.5-1,0.4-1-0.1l-1-10.9c0,0,2.1-1.4,0.9-3.9c-1.1-2.2,0.3-2.9,0.3-2.9s0.4,0.4,0.9,0.4
			c0.9,0,2.4-1.1,1.5-3.4c0,0-0.1-1.7,0.1-2.3c0.3-0.5,0.5-1.5,0.1-2.3s-0.6-1-0.6-1.4c0-0.3-0.3,0.8,0.1,1.4
			c0.3,0.6-0.1,1.8-0.3,2.2c-0.3,0.5-0.6,1.9-1,2.3c-0.4,0.5-2,1.1-2.6,2c-0.2,0.3-2.4,3.6-4.4,3.6H421l-0.1-1.5
			c0,0,2.1-1.4,0.9-3.9c-1.1-2.2,0.3-2.9,0.3-2.9s0.4,0.4,0.9,0.4c0.9,0,2.4-1.1,1.5-3.4c0,0-0.1-1.7,0.1-2.3
			c0.3-0.5,0.5-1.5,0.1-2.3c-0.5-0.8-0.6-1-0.6-1.4c0-0.3-0.3,0.8,0.1,1.4c0.3,0.6-0.1,1.8-0.3,2.2c-0.3,0.4-0.6,1.9-1,2.3
			s-2,1.1-2.6,2c-0.2,0.3-2.4,3.6-4.4,3.6H408l-0.2-2.1c0,0,2.1-1.4,0.9-3.9c-1.1-2.2,0.3-2.9,0.3-2.9s0.4,0.4,0.9,0.4
			c0.9,0,2.4-1.1,1.5-3.4c0,0-0.1-1.7,0.1-2.3c0.2-0.5,0.5-1.5,0.1-2.3s-0.6-1-0.6-1.4c0-0.3-0.3,0.8,0.1,1.4
			c0.3,0.6-0.1,1.8-0.3,2.2c-0.3,0.4-0.6,1.9-1,2.3s-2,1.1-2.6,2c-0.2,0.3-2.4,3.6-4.4,3.6H393l-0.8-2.5l-1.8-1.2l-0.9-3.8
			c1.8-1.8-0.6-3.3-0.6-3.3c1.4-1.6-0.5-2.8-0.5-2.8c1.3-1.3-0.5-2.7-0.5-2.7c0.8-1.6-0.5-2.6-0.5-2.6c1.3-1-4.3-4.4-4.3-4.4
			l-4.6-43.9h-0.1l-4.6,43.9c0,0-5.6,3.4-4.3,4.4c0,0-1.4,0.9-0.5,2.6c0,0-1.8,1.4-0.5,2.7c0,0-1.9,1.2-0.5,2.8c0,0-2.4,1.4-0.6,3.3
			l-0.9,3.8l-1.8,1.2l-0.8,2.5h-11.3"/>
		<line class="st0" x1="352" y1="387.3" x2="485.9" y2="387.3"/>
		<line class="st0" x1="274.1" y1="401.4" x2="326.4" y2="401.4"/>
		<line class="st0" x1="274" y1="387.3" x2="326.4" y2="387.3"/>
	</g>
	<path class="st2" d="M439.2,244.2c-2.3-0.1-4.7-0.4-5.9-0.6c-0.2,0-0.2-0.3,0-0.3c1.6-0.5,2.8-1.3,3.2-1.9c0.2-0.3-0.1-0.6-0.4-0.6
		l-9.8,0.6c-2.2,0-4.2-1.6-4.2-1.6c0.8-0.4,1.9-1.2,2.5-1.6c0.1-0.1,0.1-0.3-0.1-0.3c-0.4,0-0.9,0-1.3-0.1c-0.2-0.1-0.3-0.3-0.1-0.4
		c1.1-0.6,2.2-1.4,2.8-2c0.1-0.1,0.1-0.2-0.1-0.2c-0.5,0.1-1.1-0.1-1.5-0.1c-0.3,0-0.3-0.3-0.1-0.4c3.3-2.4,1.4-5.3,1.4-5.3
		c-3.7,3.9-6.8,5-10.5,6.4c0.8-3.7-1.2-6.5-2-7.4c-0.1-0.1-0.3,0-0.3,0.1c0,1.9-0.9,3.9-0.9,3.7c-0.4-2.5-2-4.3-2.5-4.8
		c-0.1-0.1-0.1,0-0.1,0.1c0,0.9-0.6,3.2-0.6,3.1c-1-2.6-3.7-3.8-4.7-3.9c-0.1-0.1-0.2,0.1-0.1,0.2c3.3,4.8,3.6,7.4,4.2,10.4
		c-1.1-0.3-1.9-0.7-3-0.9c-3.3-0.8-4.2,0.8-4.4,1.8c-0.7,0.3-1.9,0.9-2.5,1.7c0,0,1.7,0.2,1.8,0.2l0.9,0.2c0.5,0.9,1.8,1.4,2.5,1.4
		c1.4,0.3,2.3,1.8,2.8,2.6c5.5,8.8,16.7,1.8,16.7,1.8c2.6-1.4,7.4-0.4,7.4-0.4C436.3,246.4,439.5,244.2,439.2,244.2z"/>
</g>
</svg>
